:FULLY-SPECIFIED
:FORCE-ALL-JOINTS-BE-3DOF
:DEGREES
374
root 6.19898 16.5029 -15.9009 9.38739 -17.0635 -6.14729
lfemur -45.6172 22.7946 -13.1556
ltibia 68.3607 0 0
lfoot -10.6663 -1.70295 0
ltoes 13.6787 0 0
rfemur -24.6493 -3.56603 31.278
rtibia 41.8399 0 0
rfoot -21.4455 0.65038 0
rtoes 17.7977 0 0
lowerback 5.26714 1.57561 3.44566
upperback 2.63305 2.24866 1.03497
thorax -0.146812 1.14262 -0.983071
lowerneck -7.88444 -1.26935 2.9317
upperneck -0.65363 -2.0033 2.13135
head 1.10633 -0.966516 0.1045
lclavicle 4.41933e-14 4.50394e-15 0
lhumerus -40.2432 -23.1331 94.9258
lradius 56.4339 0 0
lwrist 19.1436 0 0
lhand -21.4566 2.78295 0
lfingers 7.12502 0 0
lthumb 4.93352 32.7053 0
rclavicle 4.41933e-14 4.50394e-15 0
rhumerus -37.4608 12.8003 -93.4928
rradius 60.9856 0 0
rwrist 9.44168 0 0
rhand -9.16099 -19.314 0
rfingers 7.12502 0 0
rthumb 16.7913 -768.606 0
375
root 6.15042 16.5109 -15.7609 9.41855 -17.8261 -6.28325
lfemur -45.742 22.2584 -13.3124
ltibia 65.1864 0 0
lfoot -10.151 -0.790903 0
ltoes 13.6179 0 0
rfemur -23.7058 -2.94557 31.3016
rtibia 41.3617 0 0
rfoot -21.68 0.644051 0
rtoes 17.8584 0 0
lowerback 5.21234 1.74899 3.53993
upperback 2.60131 2.48119 0.968866
thorax -0.129867 1.25984 -1.11255
lowerneck -7.78115 -1.19289 3.08278
upperneck -0.551141 -1.91169 2.07469
head 1.11995 -0.920338 0.0649319
lclavicle 3.68654e-14 2.7285e-15 0
lhumerus -40.1463 -23.0388 94.6044
lradius 56.1073 0 0
lwrist 18.7829 0 0
lhand -21.6045 2.62906 0
lfingers 7.12502 0 0
lthumb 4.79069 32.5545 0
rclavicle 3.68654e-14 2.7285e-15 0
rhumerus -37.6069 13.0962 -93.6108
rradius 60.3749 0 0
rwrist 9.60643 0 0
rhand -9.56151 -19.151 0
rfingers 7.12502 0 0
rthumb 16.4057 -768.474 0
376
root 6.10027 16.5191 -15.6162 9.45073 -18.6138 -6.4237
lfemur -45.871 21.7046 -13.4743
ltibia 61.9074 0 0
lfoot -9.61875 0.15121 0
ltoes 13.5551 0 0
rfemur -22.7311 -2.30465 31.326
rtibia 40.8676 0 0
rfoot -21.9222 0.637512 0
rtoes 17.921 0 0
lowerback 5.15574 1.92808 3.63731
upperback 2.56851 2.72139 0.900581
thorax -0.112364 1.38094 -1.24629
lowerneck -7.67445 -1.1139 3.23884
upperneck -0.445273 -1.81705 2.01616
head 1.13403 -0.872637 0.0240595
lclavicle 2.92959e-14 8.9453e-16 0
lhumerus -40.0461 -22.9415 94.2724
lradius 55.77 0 0
lwrist 18.4104 0 0
lhand -21.7573 2.4701 0
lfingers 7.12502 0 0
lthumb 4.64315 32.3988 0
rclavicle 2.92959e-14 8.9453e-16 0
rhumerus -37.7578 13.4017 -93.7328
rradius 59.744 0 0
rwrist 9.7766 0 0
rhand -9.97524 -18.9826 0
rfingers 7.12502 0 0
rthumb 16.0072 -768.337 0
377
root 6.05012 16.5274 -15.4715 9.48292 -19.4016 -6.56414
lfemur -46 21.1507 -13.6362
ltibia 58.6285 0 0
lfoot -9.08648 1.09332 0
ltoes 13.4924 0 0
rfemur -21.7565 -1.66373 31.3505
rtibia 40.3735 0 0
rfoot -22.1645 0.630974 0
rtoes 17.9837 0 0
lowerback 5.09914 2.10717 3.73469
upperback 2.53572 2.96158 0.832296
thorax -0.0948605 1.50203 -1.38004
lowerneck -7.56774 -1.03492 3.3949
upperneck -0.339405 -1.72242 1.95762
head 1.1481 -0.824937 -0.016813
lclavicle 2.17264e-14 -9.39441e-16 0
lhumerus -39.946 -22.8442 93.9403
lradius 55.4327 0 0
lwrist 18.0378 0 0
lhand -21.9101 2.31115 0
lfingers 7.12502 0 0
lthumb 4.49561 32.2431 0
rclavicle 2.17264e-14 -9.39441e-16 0
rhumerus -37.9087 13.7073 -93.8548
rradius 59.1131 0 0
rwrist 9.94677 0 0
rhand -10.389 -18.8142 0
rfingers 7.12502 0 0
rthumb 15.6088 -768.201 0
378
root 6.00156 16.5354 -15.3315 9.51408 -20.1642 -6.7001
lfemur -46.1248 20.6145 -13.793
ltibia 55.4542 0 0
lfoot -8.5712 2.00537 0
ltoes 13.4316 0 0
rfemur -20.813 -1.04327 31.3741
rtibia 39.8953 0 0
rfoot -22.399 0.624645 0
rtoes 18.0444 0 0
lowerback 5.04434 2.28055 3.82896
upperback 2.50398 3.19411 0.766189
thorax -0.0779159 1.61925 -1.50952
lowerneck -7.46445 -0.958458 3.54598
upperneck -0.236916 -1.63081 1.90096
head 1.16172 -0.778759 -0.056381
lclavicle 1.43986e-14 -2.71488e-15 0
lhumerus -39.8491 -22.7499 93.6189
lradius 55.1061 0 0
lwrist 17.6771 0 0
lhand -22.058 2.15726 0
lfingers 7.12502 0 0
lthumb 4.35278 32.0923 0
rclavicle 1.43986e-14 -2.71488e-15 0
rhumerus -38.0548 14.0032 -93.9728
rradius 58.5024 0 0
rwrist 10.1115 0 0
rhand -10.7895 -18.6512 0
rfingers 7.12502 0 0
rthumb 15.2232 -768.069 0
379
root 5.95621 16.5429 -15.2007 9.54319 -20.8765 -6.8271
lfemur -46.2414 20.1137 -13.9394
ltibia 52.4892 0 0
lfoot -8.08989 2.85728 0
ltoes 13.3749 0 0
rfemur -19.9317 -0.463717 31.3962
rtibia 39.4485 0 0
rfoot -22.618 0.618733 0
rtoes 18.1011 0 0
lowerback 4.99316 2.4425 3.91702
upperback 2.47433 3.41131 0.704442
thorax -0.0620885 1.72875 -1.63046
lowerneck -7.36796 -0.887037 3.6871
upperneck -0.141185 -1.54524 1.84803
head 1.17445 -0.735625 -0.0933401
lclavicle 7.55382e-15 -4.37326e-15 0
lhumerus -39.7586 -22.6619 93.3187
lradius 54.8011 0 0
lwrist 17.3402 0 0
lhand -22.1962 2.01352 0
lfingers 7.12502 0 0
lthumb 4.21936 31.9515 0
rclavicle 7.55382e-15 -4.37326e-15 0
rhumerus -38.1913 14.2795 -94.0831
rradius 57.9319 0 0
rwrist 10.2654 0 0
rhand -11.1636 -18.4989 0
rfingers 7.12502 0 0
rthumb 14.8629 -767.946 0
380
root 5.90807 16.5414 -15.0568 9.4712 -21.3338 -6.94344
lfemur -45.4615 18.517 -13.1514
ltibia 49.9287 0 0
lfoot -7.96472 4.41292 0
ltoes 13.6563 0 0
rfemur -19.0078 -0.372687 31.4523
rtibia 39.1508 0 0
rfoot -22.8324 0.592073 0
rtoes 17.9732 0 0
lowerback 4.85468 2.52206 4.02558
upperback 2.42381 3.51605 0.663251
thorax -0.0200956 1.78259 -1.73046
lowerneck -7.24254 -0.841268 3.81884
upperneck -0.0083448 -1.4913 1.82185
head 1.195 -0.706607 -0.121737
lclavicle 1.92094e-14 -4.62358e-15 0
lhumerus -39.9384 -22.504 93.2012
lradius 54.6699 0 0
lwrist 17.4631 0 0
lhand -21.6096 2.3377 0
lfingers 7.12502 0 0
lthumb 4.78565 32.2595 0
rclavicle 1.92094e-14 -4.62358e-15 0
rhumerus -38.494 14.4882 -94.1897
rradius 57.6985 0 0
rwrist 10.3203 0 0
rhand -11.5113 -18.6633 0
rfingers 7.12502 0 0
rthumb 14.5278 -768.133 0
381
root 5.85653 16.5397 -14.9028 9.39413 -21.8234 -7.068
lfemur -44.6266 16.8076 -12.3077
ltibia 47.1876 0 0
lfoot -7.83071 6.07838 0
ltoes 13.9575 0 0
rfemur -18.0187 -0.27523 31.5124
rtibia 38.832 0 0
rfoot -23.0619 0.563532 0
rtoes 17.8363 0 0
lowerback 4.70642 2.60723 4.14181
upperback 2.36973 3.62818 0.619152
thorax 0.0248615 1.84024 -1.83751
lowerneck -7.10828 -0.792269 3.95989
upperneck 0.133872 -1.43355 1.79383
head 1.217 -0.67554 -0.152139
lclavicle 3.16877e-14 -4.89157e-15 0
lhumerus -40.1309 -22.335 93.0753
lradius 54.5294 0 0
lwrist 17.5947 0 0
lhand -20.9817 2.68475 0
lfingers 7.12502 0 0
lthumb 5.39191 32.5893 0
rclavicle 3.16877e-14 -4.89157e-15 0
rhumerus -38.818 14.7116 -94.3038
rradius 57.4486 0 0
rwrist 10.3791 0 0
rhand -11.8836 -18.8394 0
rfingers 7.12502 0 0
rthumb 14.169 -768.334 0
382
root 5.8033 16.538 -14.7438 9.31452 -22.3292 -7.19666
lfemur -43.7642 15.0419 -11.4362
ltibia 44.356 0 0
lfoot -7.69228 7.79874 0
ltoes 14.2687 0 0
rfemur -16.9971 -0.174561 31.5744
rtibia 38.5028 0 0
rfoot -23.299 0.534049 0
rtoes 17.6948 0 0
lowerback 4.55328 2.69521 4.26187
upperback 2.31387 3.74401 0.5736
thorax 0.0713008 1.89978 -1.9481
lowerneck -6.96958 -0.741654 4.10558
upperneck 0.280778 -1.3739 1.76487
head 1.23973 -0.64345 -0.183543
lclavicle 4.45775e-14 -5.1684e-15 0
lhumerus -40.3297 -22.1604 92.9454
lradius 54.3842 0 0
lwrist 17.7305 0 0
lhand -20.333 3.04325 0
lfingers 7.12502 0 0
lthumb 6.01816 32.93 0
rclavicle 4.45775e-14 -5.1684e-15 0
rhumerus -39.1527 14.9424 -94.4216
rradius 57.1906 0 0
rwrist 10.4399 0 0
rhand -12.2682 -19.0213 0
rfingers 7.12502 0 0
rthumb 13.7984 -768.54 0
383
root 5.75006 16.5363 -14.5847 9.2349 -22.835 -7.32533
lfemur -42.9018 13.2761 -10.5648
ltibia 41.5244 0 0
lfoot -7.55385 9.5191 0
ltoes 14.5799 0 0
rfemur -15.9754 -0.0738925 31.6364
rtibia 38.1735 0 0
rfoot -23.5362 0.504566 0
rtoes 17.5533 0 0
lowerback 4.40013 2.7832 4.38193
upperback 2.25801 3.85983 0.528047
thorax 0.11774 1.95932 -2.05869
lowerneck -6.83088 -0.69104 4.25127
upperneck 0.427684 -1.31426 1.73592
head 1.26246 -0.611359 -0.214947
lclavicle 5.74672e-14 -5.44523e-15 0
lhumerus -40.5286 -21.9858 92.8154
lradius 54.2391 0 0
lwrist 17.8664 0 0
lhand -19.6843 3.40176 0
lfingers 7.12502 0 0
lthumb 6.64441 33.2707 0
rclavicle 5.74672e-14 -5.44523e-15 0
rhumerus -39.4874 15.1732 -94.5394
rradius 56.9325 0 0
rwrist 10.5007 0 0
rhand -12.6527 -19.2031 0
rfingers 7.12502 0 0
rthumb 13.4278 -768.747 0
384
root 5.69852 16.5346 -14.4307 9.15783 -23.3246 -7.44989
lfemur -42.0669 11.5667 -9.72109
ltibia 38.7833 0 0
lfoot -7.41984 11.1846 0
ltoes 14.8811 0 0
rfemur -14.9863 0.0235636 31.6965
rtibia 37.8547 0 0
rfoot -23.7657 0.476025 0
rtoes 17.4164 0 0
lowerback 4.25187 2.86837 4.49816
upperback 2.20393 3.97196 0.483948
thorax 0.162697 2.01697 -2.16574
lowerneck -6.69662 -0.642041 4.39232
upperneck 0.569901 -1.25651 1.7079
head 1.28446 -0.580292 -0.245349
lclavicle 6.99455e-14 -5.71322e-15 0
lhumerus -40.7211 -21.8168 92.6895
lradius 54.0986 0 0
lwrist 17.998 0 0
lhand -19.0564 3.74881 0
lfingers 7.12502 0 0
lthumb 7.25067 33.6005 0
rclavicle 6.99455e-14 -5.71322e-15 0
rhumerus -39.8114 15.3966 -94.6535
rradius 56.6826 0 0
rwrist 10.5595 0 0
rhand -13.025 -19.3792 0
rfingers 7.12502 0 0
rthumb 13.069 -768.948 0
385
root 5.65038 16.5331 -14.2868 9.08584 -23.7819 -7.56623
lfemur -41.287 9.97001 -8.93306
ltibia 36.2228 0 0
lfoot -7.29467 12.7402 0
ltoes 15.1625 0 0
rfemur -14.0624 0.114594 31.7526
rtibia 37.557 0 0
rfoot -23.9801 0.449365 0
rtoes 17.2885 0 0
lowerback 4.11339 2.94793 4.60672
upperback 2.15341 4.0767 0.442757
thorax 0.20469 2.07081 -2.26574
lowerneck -6.5712 -0.596272 4.52406
upperneck 0.702741 -1.20257 1.68172
head 1.30501 -0.551274 -0.273746
lclavicle 8.16011e-14 -5.96354e-15 0
lhumerus -40.9009 -21.6589 92.572
lradius 53.9674 0 0
lwrist 18.1209 0 0
lhand -18.4698 4.07299 0
lfingers 7.12502 0 0
lthumb 7.81696 33.9085 0
rclavicle 8.16011e-14 -5.96354e-15 0
rhumerus -40.1141 15.6053 -94.7601
rradius 56.4492 0 0
rwrist 10.6144 0 0
rhand -13.3727 -19.5436 0
rfingers 7.12502 0 0
rthumb 12.7339 -769.135 0
386
root 5.59933 16.524 -14.1439 8.92479 -24.1803 -7.57534
lfemur -40.717 8.59855 -8.30535
ltibia 35.8599 0 0
lfoot -7.13316 12.8944 0
ltoes 14.055 0 0
rfemur -13.7004 -0.421349 31.703
rtibia 38.3186 0 0
rfoot -23.8767 0.37397 0
rtoes 16.0644 0 0
lowerback 4.00227 3.01419 4.50035
upperback 2.08984 4.15829 0.414344
thorax 0.200868 2.11015 -2.2333
lowerneck -6.48002 -0.55776 4.62937
upperneck 0.886616 -1.16079 1.7246
head 1.34877 -0.524907 -0.277156
lclavicle 6.61125e-14 -1.58292e-15 0
lhumerus -41.1669 -21.6256 92.6985
lradius 53.8339 0 0
lwrist 18.2421 0 0
lhand -17.785 4.27105 0
lfingers 7.12502 0 0
lthumb 8.47762 34.075 0
rclavicle 6.61125e-14 -1.58292e-15 0
rhumerus -40.5612 15.4548 -94.7013
rradius 56.6139 0 0
rwrist 10.5915 0 0
rhand -13.4818 -19.3701 0
rfingers 7.12502 0 0
rthumb 12.6287 -768.968 0
387
root 5.54469 16.5142 -13.991 8.75238 -24.6069 -7.5851
lfemur -40.1067 7.13028 -7.63333
ltibia 35.4713 0 0
lfoot -6.96026 13.0595 0
ltoes 12.8692 0 0
rfemur -13.3129 -0.995123 31.6498
rtibia 39.134 0 0
rfoot -23.7661 0.293252 0
rtoes 14.754 0 0
lowerback 3.88331 3.08513 4.38647
upperback 2.02178 4.24564 0.383925
thorax 0.196776 2.15226 -2.19857
lowerneck -6.38241 -0.516529 4.74212
upperneck 1.08347 -1.11605 1.77052
head 1.39561 -0.496678 -0.280807
lclavicle 4.95305e-14 3.10693e-15 0
lhumerus -41.4517 -21.5899 92.8338
lradius 53.691 0 0
lwrist 18.3718 0 0
lhand -17.0519 4.4831 0
lfingers 7.12502 0 0
lthumb 9.18492 34.2533 0
rclavicle 4.95305e-14 3.10693e-15 0
rhumerus -41.0399 15.2936 -94.6383
rradius 56.7903 0 0
rwrist 10.5669 0 0
rhand -13.5986 -19.1843 0
rfingers 7.12502 0 0
rthumb 12.5161 -768.789 0
